<?xml version="1.0" encoding="UTF-8"?>
<svg xmlns="http://www.w3.org/2000/svg" xmlns:xlink="http://www.w3.org/1999/xlink" viewBox="0 90 300 120">
  <defs>
    <style>
      .cls-1 {
        fill: #fff;
      }

      .cls-2 {
        fill: #1ca538;
      }

      .cls-3 {
        fill: #1d1d1b;
      }

      .cls-4 {
        fill: #65320b;
      }

      .cls-5 {
        fill: url(#Nova_amostra_de_gradiente_1);
        fill-rule: evenodd;
      }

      .cls-5, .cls-6 {
        stroke: #fff;
        stroke-miterlimit: 10;
        stroke-width: .25px;
      }

      .cls-6 {
        fill: none;
      }
    </style>
    <linearGradient id="Nova_amostra_de_gradiente_1" data-name="Nova amostra de gradiente 1" x1="15.32" y1="287.14" x2="20.85" y2="292.63" gradientTransform="translate(-147.66 3629.04) scale(12 -12)" gradientUnits="userSpaceOnUse">
      <stop offset="0" stop-color="#177f0e"/>
      <stop offset=".25" stop-color="#309524"/>
      <stop offset=".5" stop-color="#48ab3a"/>
      <stop offset=".75" stop-color="#61c04f"/>
      <stop offset="1" stop-color="#7ad665"/>
    </linearGradient>
  </defs>
  <rect width="300" height="300" fill="none"/>
  <g id="Camada_1" data-name="Camada 1">
    <g>
      <path class="cls-5" d="M71.63,117.06c-.59-2.01-1.04-4.06-1.35-6.13v-6.04c11.27.11,22.08,4.45,30.3,12.16h-28.95ZM67.87,117.06c.62-2.03,1.08-4.11,1.4-6.24v-5.93c-11.27.11-22.08,4.45-30.3,12.16h28.9ZM38.28,118.08h29.27c-.43,1.29-.91,2.55-1.45,3.79-2.25,5.38-5.5,10.28-9.59,14.43l-18.23-18.23h0ZM36.84,117.06h-16.21v1.02h15.88c-8.13,8.45-12.72,19.69-12.84,31.41H4.42v1.01h19.25c.11,11.73,4.71,22.96,12.84,31.41h-15.88v1.01h16.21v16.22h1.02v-15.88c8.45,8.13,19.69,12.72,31.41,12.84v19.25h1.01v-19.25c11.73-.11,22.96-4.71,31.41-12.84v15.88h1.01v-16.22h16.22v-1.01h-15.88c8.13-8.45,12.72-19.69,12.84-31.41h19.25v-1.01h-19.25c-.11-11.73-4.71-22.96-12.84-31.41h15.88v-1.02h-16.22v-16.21h-1.01v15.88c-8.45-8.13-19.69-12.72-31.41-12.84v-19.25h-1.01v19.25c-11.73.11-22.96,4.71-31.41,12.84v-15.88h-1.02s0,16.21,0,16.21ZM70.28,195.09c11.27-.11,22.08-4.45,30.3-12.16h-28.95c-.59,2-1.03,4.05-1.35,6.13v6.03ZM69.27,189.17c-.32-2.11-.78-4.2-1.41-6.24h-28.89c8.22,7.71,19.03,12.05,30.3,12.16v-5.92ZM24.68,149.49h6.03c2.07-.3,4.12-.75,6.13-1.35v-28.95c-7.71,8.22-12.05,19.03-12.16,30.3ZM30.6,150.51h-5.93c.11,11.27,4.45,22.08,12.16,30.3v-28.89c-2.04-.62-4.13-1.09-6.24-1.41h0ZM114.87,149.49c-.11-11.27-4.45-22.08-12.16-30.3v28.95c2,.59,4.05,1.03,6.13,1.35h6.03,0ZM108.95,150.51c-2.12.32-4.2.78-6.24,1.41v28.89c7.71-8.22,12.05-19.03,12.16-30.3h-5.92ZM101.7,181.5v-29.27c-1.29.43-2.55.91-3.79,1.45-5.38,2.25-10.28,5.5-14.43,9.59,0,0,18.23,18.23,18.23,18.23ZM101.7,147.84v-29.69l-.07-.07h-29.69c.41,1.28.88,2.55,1.42,3.79,2.35,5.46,5.72,10.43,9.91,14.64,4.22,4.19,9.18,7.56,14.64,9.91,1.24.53,2.51,1,3.79,1.41ZM37.86,181.85v-29.62c1.28.42,2.55.91,3.79,1.45,5.47,2.29,10.44,5.62,14.64,9.8,4.18,4.2,7.51,9.17,9.8,4.18,4.2,7.51,9.17,9.8,14.64.54,1.24,1.03,2.51,1.45,3.79h-29.62l-.07-.07ZM37.86,147.84v-28.74l17.92,17.92c-4.11,3.96-8.89,7.15-14.13,9.41-1.24.53-2.51,1-3.79,1.41ZM71.94,181.92h28.74l-17.92-17.92c-3.96,4.11-7.15,8.89-9.41,14.13-.53,1.24-1,2.51-1.41,3.79ZM59.16,139.38c-4.52,4.5-9.84,8.12-15.69,10.68,5.86,2.49,11.18,6.07,15.69,10.57,4.49,4.51,8.08,9.83,10.57,15.69,2.55-5.85,6.17-11.17,10.68-15.69,4.51-4.49,9.83-8.08,15.69-10.57-5.85-2.55-11.17-6.17-15.69-10.68-4.5-4.52-8.12-9.84-10.68-15.69-2.49,5.86-6.07,11.18-10.57,15.69Z"/>
      <g>
        <g>
          <path class="cls-3" d="M56.46,148.22c-1.13.53-1.37,2.56-2.26,3.27,2.97-2.32,5.59,1.66,7.55-3.33l-2.14-.77c-.89-.12-2.02-.12-3.15.83ZM60.03,146.02c.48-4.46-2.2-4.75-4.1-7.96,1.37,2.85.24,3.74,1.25,5.88s2.85,2.08,2.85,2.08ZM60.39,142.87c.95,2.08,1.96,2.97,1.96,2.97.24-2.02,2.14-3.69,2.38-5.71.06-1.84-1.49-5.65-1.49-5.65,0,0-3.8,6.3-2.85,8.38h0ZM59.67,123.13c1.55,2.73,1.37,10.58,6.54,8.44l.18-.06c-1.01-1.13-.89-2.5-1.43-3.86-1.19-2.73-2.67-2.97-5.29-4.52h0ZM67.4,114.52c-.48,3.33-3.92,6.95-3.15,9.57.71,2.62,2.56,4.22,2.56,4.22-.12-2.79,2.85-4.4,2.79-7.01.06-2.2-2.08-4.34-2.2-6.78h0ZM68.41,129.67s1.78,1.13,4.16-.53,2.2-5.23,2.5-8.97c-1.01,3.69-9.21,3.98-6.66,9.51ZM71.92,138.17c1.07,2.67.95,3.63,2.14,1.43,1.19-2.2,1.07-5.29-.83-8.68-.06,3.51-2.32,4.58-1.31,7.25h0ZM79.47,138.17c2.79-1.25,5.53-2.56,5.53-9.51-.71,4.81-7.25,4.99-8.86,9.81,0,0,.53.95,3.33-.3h0ZM82.02,140.01c-2.62-.89-5.23,1.84-5.23,1.84,0,0,3.27,4.1,6.06,2.85,2.32-1.01,1.96-3.69,2.5-5.53-.06,0-.71,1.72-3.33.83h0Z"/>
          <path class="cls-3" d="M64.9,184.3c-2.91-5.53,2.02-12.48,3.09-17.83,1.31-7.25-1.01-13.67-6-18.72,1.07,1.13,4.64,3.86,6.3,1.9.77-.89.42-2.62.12-3.57-1.66-5.65-1.19-16.05-.95-15.93.24.12.36,7.13.77,9.75.3,1.31,1.13,5.11,2.38,5.29,1.25.24,3.74-4.16,5.23-4.87-1.6,4.22-4.22,7.37-4.4,12.01.06,3.74,1.43,7.13,1.49,10.7.18,6.72-1.6,15.99,1.31,22.47-1.96-1.37-7.07-1.13-9.09-.24l-.24-.95h0Z"/>
        </g>
        <g>
          <path class="cls-2" d="M56.46,148.22c-1.13.53-1.37,2.56-2.26,3.27,2.97-2.32,5.59,1.66,7.55-3.33l-2.14-.77c-.89-.12-2.02-.12-3.15.83ZM60.03,146.02c.48-4.46-2.2-4.75-4.1-7.96,1.37,2.85.24,3.74,1.25,5.88s2.85,2.08,2.85,2.08ZM60.39,142.87c.95,2.08,1.96,2.97,1.96,2.97.24-2.02,2.14-3.69,2.38-5.71.06-1.84-1.49-5.65-1.49-5.65,0,0-3.8,6.3-2.85,8.38h0ZM59.67,123.13c1.55,2.73,1.37,10.58,6.54,8.44l.18-.06c-1.01-1.13-.89-2.5-1.43-3.86-1.19-2.73-2.67-2.97-5.29-4.52h0ZM67.4,114.52c-.48,3.33-3.92,6.95-3.15,9.57.71,2.62,2.56,4.22,2.56,4.22-.12-2.79,2.85-4.4,2.79-7.01.06-2.2-2.08-4.34-2.2-6.78h0ZM68.41,129.67s1.78,1.13,4.16-.53,2.2-5.23,2.5-8.97c-1.01,3.69-9.21,3.98-6.66,9.51ZM71.92,138.17c1.07,2.67.95,3.63,2.14,1.43,1.19-2.2,1.07-5.29-.83-8.68-.06,3.51-2.32,4.58-1.31,7.25h0ZM79.47,138.17c2.79-1.25,5.53-2.56,5.53-9.51-.71,4.81-7.25,4.99-8.86,9.81,0,0,.53.95,3.33-.3h0ZM82.02,140.01c-2.62-.89-5.23,1.84-5.23,1.84,0,0,3.27,4.1,6.06,2.85,2.32-1.01,1.96-3.69,2.5-5.53-.06,0-.71,1.72-3.33.83h0Z"/>
          <path class="cls-4" d="M64.9,184.3c-2.91-5.53,2.02-12.48,3.09-17.83,1.31-7.25-1.01-13.67-6-18.72,1.07,1.13,4.64,3.86,6.3,1.9.77-.89.42-2.62.12-3.57-1.66-5.65-1.19-16.05-.95-15.93.24.12.36,7.13.77,9.75.3,1.31,1.13,5.11,2.38,5.29,1.25.24,3.74-4.16,5.23-4.87-1.6,4.22-4.22,7.37-4.4,12.01.06,3.74,1.43,7.13,1.49,10.7.18,6.72-1.6,15.99,1.31,22.47-1.96-1.37-7.07-1.13-9.09-.24l-.24-.95h0Z"/>
        </g>
        <g>
          <path class="cls-6" d="M56.46,148.22c-1.13.53-1.37,2.56-2.26,3.27,2.97-2.32,5.59,1.66,7.55-3.33l-2.14-.77c-.89-.12-2.02-.12-3.15.83ZM60.03,146.02c.48-4.46-2.2-4.75-4.1-7.96,1.37,2.85.24,3.74,1.25,5.88s2.85,2.08,2.85,2.08ZM60.39,142.87c.95,2.08,1.96,2.97,1.96,2.97.24-2.02,2.14-3.69,2.38-5.71.06-1.84-1.49-5.65-1.49-5.65,0,0-3.8,6.3-2.85,8.38h0ZM59.67,123.13c1.55,2.73,1.37,10.58,6.54,8.44l.18-.06c-1.01-1.13-.89-2.5-1.43-3.86-1.19-2.73-2.67-2.97-5.29-4.52h0ZM67.4,114.52c-.48,3.33-3.92,6.95-3.15,9.57.71,2.62,2.56,4.22,2.56,4.22-.12-2.79,2.85-4.4,2.79-7.01.06-2.2-2.08-4.34-2.2-6.78h0ZM68.41,129.67s1.78,1.13,4.16-.53,2.2-5.23,2.5-8.97c-1.01,3.69-9.21,3.98-6.66,9.51ZM71.92,138.17c1.07,2.67.95,3.63,2.14,1.43,1.19-2.2,1.07-5.29-.83-8.68-.06,3.51-2.32,4.58-1.31,7.25h0ZM79.47,138.17c2.79-1.25,5.53-2.56,5.53-9.51-.71,4.81-7.25,4.99-8.86,9.81,0,0,.53.95,3.33-.3h0ZM82.02,140.01c-2.62-.89-5.23,1.84-5.23,1.84,0,0,3.27,4.1,6.06,2.85,2.32-1.01,1.96-3.69,2.5-5.53-.06,0-.71,1.72-3.33.83h0Z"/>
          <path class="cls-6" d="M64.9,184.3c-2.91-5.53,2.02-12.48,3.09-17.83,1.31-7.25-1.01-13.67-6-18.72,1.07,1.13,4.64,3.86,6.3,1.9.77-.89.42-2.62.12-3.57-1.66-5.65-1.19-16.05-.95-15.93.24.12.36,7.13.77,9.75.3,1.31,1.13,5.11,2.38,5.29,1.25.24,3.74-4.16,5.23-4.87-1.6,4.22-4.22,7.37-4.4,12.01.06,3.74,1.43,7.13,1.49,10.7.18,6.72-1.6,15.99,1.31,22.47-1.96-1.37-7.07-1.13-9.09-.24l-.24-.95h0Z"/>
        </g>
      </g>
    </g>
    <g>
      <path class="cls-1" d="M158.83,135.22c.02.24.05.62.09,1.15.04.53.06,1.06.07,1.58.01.53.02.92.02,1.19,0,1.87-.32,3.47-.95,4.79-.64,1.32-1.48,2.39-2.54,3.22-1.06.83-2.23,1.43-3.53,1.8-1.3.37-2.6.56-3.92.56-2.06,0-3.9-.34-5.51-1.01-1.61-.67-2.96-1.62-4.07-2.84-1.1-1.22-1.94-2.65-2.5-4.27-.56-1.62-.85-3.39-.85-5.31,0-2.66.54-5.05,1.64-7.16,1.09-2.11,2.66-3.78,4.72-5,2.05-1.22,4.51-1.84,7.36-1.84.79,0,1.66.09,2.59.27.94.18,1.88.48,2.83.9s1.81.98,2.57,1.67l-2.7,4.36c-.72-.67-1.58-1.17-2.57-1.51-1-.34-2.01-.5-3.04-.5-1.66,0-3.1.36-4.32,1.08-1.22.72-2.17,1.72-2.84,3.01-.67,1.28-1.01,2.79-1.01,4.52s.32,3.28.95,4.59c.64,1.31,1.54,2.32,2.72,3.02,1.18.71,2.57,1.06,4.18,1.06.96,0,1.85-.17,2.66-.5.82-.34,1.48-.81,1.98-1.42.5-.61.76-1.31.76-2.11v-1.73l1.15,1.33h-6.7v-4.9h10.76Z"/>
      <path class="cls-1" d="M176.4,144.29c.72-.22,1.42-.52,2.09-.9l1.69,4.28c-.29.34-.76.66-1.42.97-.66.31-1.43.57-2.32.77-.89.2-1.82.31-2.81.31-2.33,0-4.36-.5-6.1-1.51-1.74-1.01-3.1-2.37-4.09-4.09-.98-1.72-1.48-3.63-1.48-5.74,0-1.56.27-3.02.81-4.37.54-1.36,1.3-2.54,2.29-3.56.98-1.02,2.15-1.82,3.51-2.41,1.36-.59,2.85-.88,4.48-.88,1.85,0,3.51.47,4.99,1.4,1.48.94,2.63,2.18,3.46,3.74.83,1.56,1.24,3.3,1.24,5.22,0,.36-.02.83-.07,1.42-.05.59-.13,1.03-.25,1.31h-5.04v-2.52c0-1.13-.18-2.14-.54-3.04-.36-.9-.89-1.6-1.58-2.09-.7-.49-1.55-.74-2.56-.74-1.27,0-2.32.31-3.15.94s-1.44,1.41-1.84,2.36c-.4.95-.59,1.91-.59,2.9,0,1.25.25,2.36.76,3.35s1.27,1.76,2.3,2.34,2.32.86,3.85.86c.86,0,1.66-.11,2.38-.32ZM179.85,135.87v4.39h-15.19v-4.39h15.19Z"/>
      <path class="cls-1" d="M186.51,127.8h5.04v21.17h-5.04v-21.17ZM198.46,135.47c0-1.2-.3-2.11-.9-2.74-.6-.62-1.36-.94-2.27-.94-.55,0-1.12.12-1.69.36-.58.24-1.06.66-1.46,1.26-.4.6-.59,1.42-.59,2.45l-3.89-.54c.38-1.39.97-2.71,1.76-3.96s1.76-2.26,2.92-3.04c1.15-.78,2.45-1.17,3.89-1.17s2.63.29,3.73.86,1.96,1.42,2.59,2.52.95,2.41.95,3.92v14.51h-5.04v-13.5ZM210.38,135.47c0-1.2-.3-2.11-.9-2.74-.6-.62-1.34-.94-2.23-.94-.55,0-1.12.12-1.71.36-.59.24-1.07.66-1.46,1.26s-.58,1.42-.58,2.45l-3.92-.65c.02-1.06.28-2.07.76-3.04s1.13-1.84,1.94-2.59c.82-.76,1.73-1.35,2.75-1.78,1.02-.43,2.07-.65,3.15-.65,1.37,0,2.6.29,3.69.86s1.96,1.42,2.59,2.52.95,2.41.95,3.92v14.51h-5.04v-13.5Z"/>
      <path class="cls-1" d="M219.95,127.8h5.04v21.17h-5.04v-21.17ZM231.91,135.47c0-1.2-.3-2.11-.9-2.74-.6-.62-1.36-.94-2.27-.94-.55,0-1.12.12-1.69.36-.58.24-1.06.66-1.46,1.26-.4.6-.59,1.42-.59,2.45l-3.89-.54c.38-1.39.97-2.71,1.76-3.96s1.76-2.26,2.92-3.04c1.15-.78,2.45-1.17,3.89-1.17s2.63.29,3.73.86,1.96,1.42,2.59,2.52.95,2.41.95,3.92v14.51h-5.04v-13.5ZM243.82,135.47c0-1.2-.3-2.11-.9-2.74-.6-.62-1.34-.94-2.23-.94-.55,0-1.12.12-1.71.36-.59.24-1.07.66-1.46,1.26s-.58,1.42-.58,2.45l-3.92-.65c.02-1.06.28-2.07.76-3.04s1.13-1.84,1.94-2.59c.82-.76,1.73-1.35,2.75-1.78,1.02-.43,2.07-.65,3.15-.65,1.37,0,2.6.29,3.69.86s1.96,1.42,2.59,2.52.95,2.41.95,3.92v14.51h-5.04v-13.5Z"/>
      <path class="cls-1" d="M265.21,136.8c0-1.1-.22-1.99-.67-2.65-.44-.66-1.03-1.14-1.75-1.44s-1.5-.45-2.34-.45c-1.15,0-2.21.22-3.17.65-.96.43-1.75.88-2.38,1.33l-2.48-4.28c1.01-.79,2.2-1.45,3.58-1.98,1.38-.53,2.98-.79,4.81-.79s3.35.29,4.79.88c1.44.59,2.59,1.51,3.46,2.77.86,1.26,1.3,2.92,1.3,4.99v13.14h-5.15v-12.17ZM265.85,146.45c-.34.5-.79.98-1.35,1.44-.56.46-1.22.82-1.98,1.1-.76.28-1.61.41-2.57.41-2.09,0-3.75-.6-4.99-1.8-1.24-1.2-1.85-2.75-1.85-4.64,0-1.39.35-2.58,1.06-3.56.71-.98,1.67-1.73,2.88-2.25,1.21-.52,2.54-.77,3.98-.77.84,0,1.59.08,2.25.25.66.17,1.21.4,1.66.7.44.3.75.63.92.99v8.14ZM260.38,140.66c-.53.22-.95.52-1.26.92-.31.4-.47.87-.47,1.42,0,.74.28,1.34.85,1.78.56.44,1.24.67,2.03.67.72,0,1.35-.14,1.89-.43s.97-.67,1.3-1.13.49-.97.49-1.49c0-.43-.15-.8-.45-1.1-.3-.3-.69-.53-1.17-.7-.48-.17-.97-.25-1.48-.25-.62,0-1.2.11-1.73.32Z"/>
      <path class="cls-1" d="M158.83,166.42c.02.24.05.62.09,1.15.04.53.06,1.06.07,1.58.01.53.02.92.02,1.19,0,1.87-.32,3.47-.95,4.79-.64,1.32-1.48,2.39-2.54,3.22-1.06.83-2.23,1.43-3.53,1.8-1.3.37-2.6.56-3.92.56-2.06,0-3.9-.34-5.51-1.01-1.61-.67-2.96-1.62-4.07-2.84-1.1-1.22-1.94-2.65-2.5-4.27-.56-1.62-.85-3.39-.85-5.31,0-2.66.54-5.05,1.64-7.16,1.09-2.11,2.66-3.78,4.72-5,2.05-1.22,4.51-1.84,7.36-1.84.79,0,1.66.09,2.59.27.94.18,1.88.48,2.83.9s1.81.98,2.57,1.67l-2.7,4.36c-.72-.67-1.58-1.17-2.57-1.51-1-.34-2.01-.5-3.04-.5-1.66,0-3.1.36-4.32,1.08-1.22.72-2.17,1.72-2.84,3.01-.67,1.28-1.01,2.79-1.01,4.52s.32,3.28.95,4.59c.64,1.31,1.54,2.32,2.72,3.02,1.18.71,2.57,1.06,4.18,1.06.96,0,1.85-.17,2.66-.5.82-.34,1.48-.81,1.98-1.42.5-.61.76-1.31.76-2.11v-1.73l1.15,1.33h-6.7v-4.9h10.76Z"/>
      <path class="cls-1" d="M167.72,171.82c0,1.37.38,2.42,1.15,3.17.77.74,1.68,1.13,2.74,1.15.67,0,1.33-.17,1.96-.5.64-.34,1.16-.85,1.57-1.55s.61-1.58.61-2.66l3.89.5c-.26.89-.64,1.84-1.13,2.86-.49,1.02-1.12,1.99-1.87,2.92s-1.63,1.69-2.61,2.29c-.98.6-2.08.9-3.28.9-1.54,0-2.92-.33-4.14-.99-1.22-.66-2.18-1.59-2.88-2.79s-1.04-2.59-1.04-4.18v-13.9h5.04v12.78ZM180.79,180.21h-5.04v-21.17h5.04v21.17Z"/>
      <path class="cls-1" d="M197.13,168c0-1.1-.22-1.99-.67-2.65-.44-.66-1.03-1.14-1.75-1.44s-1.5-.45-2.34-.45c-1.15,0-2.21.22-3.17.65-.96.43-1.75.88-2.38,1.33l-2.48-4.28c1.01-.79,2.2-1.45,3.58-1.98,1.38-.53,2.98-.79,4.81-.79s3.35.29,4.79.88c1.44.59,2.59,1.51,3.46,2.77.86,1.26,1.3,2.92,1.3,4.99v13.14h-5.15v-12.17ZM197.78,177.65c-.34.5-.79.98-1.35,1.44-.56.46-1.22.82-1.98,1.1-.76.28-1.61.41-2.57.41-2.09,0-3.75-.6-4.99-1.8-1.24-1.2-1.85-2.75-1.85-4.64,0-1.39.35-2.58,1.06-3.56.71-.98,1.67-1.73,2.88-2.25,1.21-.52,2.54-.77,3.98-.77.84,0,1.59.08,2.25.25.66.17,1.21.4,1.66.7.44.3.75.63.92.99v8.14ZM192.31,171.86c-.53.22-.95.52-1.26.92-.31.4-.47.87-.47,1.42,0,.74.28,1.34.85,1.78.56.44,1.24.67,2.03.67.72,0,1.35-.14,1.89-.43s.97-.67,1.3-1.13.49-.97.49-1.49c0-.43-.15-.8-.45-1.1-.3-.3-.69-.53-1.17-.7-.48-.17-.97-.25-1.48-.25-.62,0-1.2.11-1.73.32Z"/>
      <path class="cls-1" d="M206.81,159h5.04v21.17h-5.04v-21.17ZM217.7,163.92c-.32-.04-.67-.05-1.03-.05-.82,0-1.59.17-2.32.52-.73.35-1.33.86-1.8,1.55-.47.68-.7,1.54-.7,2.57l-3.89-.94c.24-.84.61-1.76,1.1-2.75s1.1-1.96,1.84-2.9c.73-.94,1.58-1.7,2.56-2.29.97-.59,2.06-.88,3.26-.88.36,0,.72.04,1.08.13s.64.17.83.27v4.93c-.29-.07-.59-.13-.92-.16Z"/>
      <path class="cls-1" d="M238.35,176.57c-.22.46-.52.93-.92,1.42-.4.49-.88.95-1.46,1.39s-1.27.79-2.07,1.06c-.8.28-1.72.41-2.75.41-1.49,0-2.87-.29-4.14-.88-1.27-.59-2.37-1.4-3.29-2.43-.92-1.03-1.64-2.23-2.16-3.58-.52-1.36-.77-2.8-.77-4.34s.29-2.99.88-4.36,1.39-2.57,2.41-3.6c1.02-1.03,2.19-1.85,3.51-2.45,1.32-.6,2.71-.9,4.18-.9,1.82,0,3.37.37,4.63,1.12,1.26.74,2.28,1.71,3.06,2.88.78,1.18,1.34,2.45,1.67,3.82l-2.77,10.44ZM229.4,163.83c-.68.31-1.28.74-1.78,1.3s-.89,1.22-1.17,2c-.28.78-.41,1.61-.41,2.5,0,1.2.23,2.26.7,3.19.47.92,1.12,1.66,1.96,2.2s1.81.81,2.92.81c.67,0,1.33-.14,1.98-.41.65-.28,1.24-.68,1.78-1.22.54-.54.97-1.19,1.3-1.96.32-.77.49-1.64.49-2.63,0-1.22-.23-2.3-.7-3.24-.47-.94-1.12-1.67-1.94-2.2-.83-.53-1.78-.79-2.86-.79-.82,0-1.57.16-2.25.47ZM237.56,163.79l-.54-1.87v-8.21h5.08v26.46h-4.54v-16.38Z"/>
      <path class="cls-1" d="M246.92,152.76c.58-.42,1.33-.63,2.27-.63s1.72.21,2.29.63c.56.42.85,1.01.85,1.78s-.28,1.33-.85,1.76c-.56.43-1.33.65-2.29.65s-1.69-.21-2.25-.63c-.56-.42-.86-1.01-.88-1.78,0-.77.29-1.36.86-1.78ZM246.67,159.04h5.04v21.13h-5.04v-21.13Z"/>
      <path class="cls-1" d="M268.05,168c0-1.1-.22-1.99-.67-2.65-.44-.66-1.03-1.14-1.75-1.44s-1.5-.45-2.34-.45c-1.15,0-2.21.22-3.17.65-.96.43-1.75.88-2.38,1.33l-2.48-4.28c1.01-.79,2.2-1.45,3.58-1.98,1.38-.53,2.98-.79,4.81-.79s3.35.29,4.79.88c1.44.59,2.59,1.51,3.46,2.77.86,1.26,1.3,2.92,1.3,4.99v13.14h-5.15v-12.17ZM268.7,177.65c-.34.5-.79.98-1.35,1.44-.56.46-1.22.82-1.98,1.1-.76.28-1.61.41-2.57.41-2.09,0-3.75-.6-4.99-1.8-1.24-1.2-1.85-2.75-1.85-4.64,0-1.39.35-2.58,1.06-3.56.71-.98,1.67-1.73,2.88-2.25,1.21-.52,2.54-.77,3.98-.77.84,0,1.59.08,2.25.25.66.17,1.21.4,1.66.7.44.3.75.63.92.99v8.14ZM263.23,171.86c-.53.22-.95.52-1.26.92-.31.4-.47.87-.47,1.42,0,.74.28,1.34.85,1.78.56.44,1.24.67,2.03.67.72,0,1.35-.14,1.89-.43s.97-.67,1.3-1.13.49-.97.49-1.49c0-.43-.15-.8-.45-1.1-.3-.3-.69-.53-1.17-.7-.48-.17-.97-.25-1.48-.25-.62,0-1.2.11-1.73.32Z"/>
      <path class="cls-1" d="M277.73,159h5.04v21.17h-5.04v-21.17ZM290.87,167.39c0-1.34-.39-2.39-1.17-3.15-.78-.76-1.67-1.13-2.68-1.13-.7,0-1.37.17-2.02.5s-1.18.85-1.6,1.53c-.42.68-.63,1.58-.63,2.68l-3.89-.58c.24-.86.62-1.81,1.13-2.83.52-1.02,1.16-1.99,1.93-2.92.77-.92,1.65-1.68,2.65-2.27s2.11-.88,3.33-.88c1.51,0,2.87.33,4.09.99,1.21.66,2.16,1.58,2.84,2.75.68,1.18,1.03,2.53,1.03,4.07v14h-5v-12.78Z"/>
    </g>
  </g>
</svg>
